<svg viewBox="0 0 102.15 118.8" xmlns="http://www.w3.org/2000/svg"><g transform="translate(-323.17 -327.83)"><path d="m353 408.55a42.39 42.39 0 0 0 -4.07 4.84 2 2 0 0 1 -1.06.84c-1.33.5-3.91 1.86-2.9 4.75 1.34 3.83 6.26.89 6.83.19a1.74 1.74 0 0 1 2.74.45c.39.87 3.55 3.05 5.48 4.06a2.11 2.11 0 0 1 1.14 2.08c-.23 2.52-.21 7.51 3.09 10.2 4.53 3.7 11.93 10.72 15.38 10s-1.72.32-1-6.26c.68-6.34 8.83-9 9.64-15a2.15 2.15 0 0 1 .7-1.27l3.5-3.29a2.1 2.1 0 0 1 2.15-.45c2.48.87 8 2.46 8.39-.71.45-4.08-2.17-4.85-3.83-4.78-1.45.05-5.85-4.94-6.91-6.18a2.5 2.5 0 0 0 -.56-.46l-8.07-4.55a2 2 0 0 0 -.89-.27l-22-1.55a2.11 2.11 0 0 0 -2 3.14 2.12 2.12 0 0 1 -1.58 3.13l-2.89.38a2.14 2.14 0 0 0 -1.28.71z" fill="#4cc9f5"/><path d="m403 419c.45-4.08-2.17-4.85-3.83-4.78-1.06 0-3.68-2.6-5.43-4.52h-2.33s4.08 5.45 7 6 2.05 5.11 2.05 5.11l1.61-.29a1.81 1.81 0 0 0 .93-1.52z" fill="#2293b2"/><g fill="#2293b2" opacity=".42"><path d="m351.29 419.61c-1.82.38-3.75.5-4.63-.38-1.92-1.91 2.3-2 3.32-4.21a46.89 46.89 0 0 1 4.47-6.38l-.45-.64a2.16 2.16 0 0 0 -1 .59 42.39 42.39 0 0 0 -4.07 4.84 2 2 0 0 1 -1.06.84c-1.33.5-3.91 1.86-2.9 4.75 1.17 3.21 4.88 1.58 6.32.59z"/><path d="m353.89 418.91a1.24 1.24 0 0 1 .35.25l1.23-.82s-.64.26-1.58.57z"/></g><path d="m367.21 436c-7.66-3.45-5.36-13.28-5.36-13.28l-1 1.7a2.08 2.08 0 0 1 .37 1.38c-.23 2.52-.21 7.51 3.09 10.2 4.53 3.7 11.93 10.72 15.38 10a34.81 34.81 0 0 0 -12.48-10z" fill="#2293b2" opacity=".58"/><path d="m353 408.55a42.39 42.39 0 0 0 -4.07 4.84 2 2 0 0 1 -1.06.84c-1.33.5-3.91 1.86-2.9 4.75 1.34 3.83 6.26.89 6.83.19a1.74 1.74 0 0 1 2.74.45c.39.87 3.55 3.05 5.48 4.06a2.11 2.11 0 0 1 1.14 2.08c-.23 2.52-.21 7.51 3.09 10.2 4.53 3.7 11.93 10.72 15.38 10s-1.72.32-1-6.26c.68-6.34 8.83-9 9.64-15a2.15 2.15 0 0 1 .7-1.27l3.5-3.29a2.1 2.1 0 0 1 2.15-.45c2.48.87 8 2.46 8.39-.71.45-4.08-2.17-4.85-3.83-4.78-1.45.05-5.85-4.94-6.91-6.18a2.5 2.5 0 0 0 -.56-.46l-8.07-4.55a2 2 0 0 0 -.89-.27l-22-1.55a2.11 2.11 0 0 0 -2 3.14 2.12 2.12 0 0 1 -1.58 3.13l-2.89.38a2.14 2.14 0 0 0 -1.28.71z" fill="none" stroke="#10242d" stroke-miterlimit="10" stroke-width="1.2"/><path d="m335.55 369.19s1.41 4.85-2.81 6.13-9.57 5.11-9.57 15.7c0 0 12.26-.76 14-5.62 0 0 2.17-2.29 2.81 1.28s4.85 8.81 14.17 13-2.15 6.32 2.85 7.43c3.58.82 4.39-1.91 11.38-2.76a27.65 27.65 0 0 1 17.9 4.15l.21.14s1.53-5 5.87-6.38 13.66-9.83 16-14.05 3.57.13 5.49 1.28 7.4 1.66 10.47.51c0 0 5.42-10.66-8.49-15.57 0 0 .25-24.43-5.3-28.77s-74.98 23.53-74.98 23.53z" fill="#10242d"/><path d="m406.53 376.09c-17.74-17.11-65.87-3.58-65.87-3.58s-9.06 31.15 32.94 30.89c0 0 20.38.64 26.51-6.25 0 0 6.29-4.94 7.4-19.92z" fill="#4cc9f5"/><path d="m362.74 401c-20.29-5-21.06-26.43-21.06-26.43s-6.13 19.54 16.47 26.56" fill="#2293b2" opacity=".42"/><path d="m342.06 375.53s44.77-12.42 62.81 2a9.13 9.13 0 0 1 2.39 6c0 3.58 2.21-11.4 2.21-11.4l-24.85-10.73s-51.75-.68-42.56 14.13z" fill="#2293b2"/><path d="m406.53 376.09c-17.74-17.11-65.87-3.58-65.87-3.58s-9.06 31.15 32.94 30.89c0 0 20.38.64 26.51-6.25 0 0 6.29-4.94 7.4-19.92z" fill="none" stroke="#10242d" stroke-miterlimit="10" stroke-width="2"/><path d="m371.94 328.72a62.56 62.56 0 0 0 -13.53 1.67c-33.92 8.37-23.24 45.06-23.24 45.06s44.17-16.34 76.34 2.29c0 0 17.11-50.29-39.57-49.02z" fill="#f1e913"/><path d="m358.64 404.06s18.32 4.66 26.66.75-26.66-.75-26.66-.75" fill="#10242d"/><path d="m412.57 373.79c1.81-8.09 4.08-26.68-9.66-37.29l-3.48-.63s15.74 13.62 11 40.85z" fill="#e79026"/><path d="m407.26 376.64-.35 7.4 2.56-6s-.68-2.04-2.21-1.4z" fill="#10242d"/><path d="m409.14 350.7c-29.36-22.59-70-3.08-70-3.08l.95-1.77c3.83-9.44 19.69-15.81 19.69-15.81l-2.39.47c-32.29 9-21.9 44.71-21.9 44.71a2 2 0 0 1 1.22-1.56c.79-.64 1.68-.38.95-1-1.79-1.53-1-17.49-1-17.49 46.6-24.12 75.32-.25 74.81-1.53a11.24 11.24 0 0 0 -2.33-2.94z" fill="#e79026"/></g><path d="m87.83 49.36 3.02-.29.04-4.98z" fill="#10242d"/><path d="m87.45 50.05.35 1.34-.03.73-2.11.73z" fill="#10242d"/><path d="m405.56 375c1.77.79 3.52 1.67 5.23 2.64l.53-.43c1.73-5.74 13.21-49.59-39.77-48.4a62.1 62.1 0 0 0 -13.55 1.71c-33.91 8.37-23.23 45.05-23.23 45.05a125.1 125.1 0 0 1 27-5.94c14.23-1.77 31.13-1.63 43.79 5.37z" fill="none" stroke="#10242d" stroke-miterlimit="10" stroke-width="2" transform="translate(-323.17 -327.83)"/><path d="m405.56 375c1.77.79 3.52 1.67 5.23 2.64l.53-.43c1.73-5.74 13.21-49.59-39.77-48.4a62.1 62.1 0 0 0 -13.55 1.71c-33.91 8.37-23.23 45.05-23.23 45.05a125.1 125.1 0 0 1 27-5.94c14.23-1.77 31.13-1.63 43.79 5.37z" fill="none" stroke="#10242d" stroke-linecap="round" stroke-linejoin="round" stroke-width="2" transform="translate(-323.17 -327.83)"/><path d="m333.83 365.43s39.7-23.62 77.36 1.66c0 0-33.96-35.24-77.36-1.66z" fill="#e79026" transform="translate(-323.17 -327.83)"/><path d="m333.66 365.53c35.27-20.92 68.19-5.12 79.94 2" fill="none" stroke="#10242d" stroke-miterlimit="10" stroke-width="2" transform="translate(-323.17 -327.83)"/><path d="m334.74 351.7c36.12-17.58 70.49-6.59 78.73 3.49" fill="none" stroke="#10242d" stroke-linejoin="round" stroke-width="2" transform="translate(-323.17 -327.83)"/><path d="m334.49 375.62s46.13-17.53 76.34 1.7" fill="none" stroke="#10242d" stroke-miterlimit="10" stroke-width="2" transform="translate(-323.17 -327.83)"/><ellipse cx="50.64" cy="20.73" fill="#d8d7ec" rx="8.94" ry="12.17" stroke="#10242d" stroke-miterlimit="10" stroke-width="2"/><path d="m378.88 347.06a2.74 2.74 0 0 0 -2.72-2.76 2.7 2.7 0 0 0 -2.12 1 2.7 2.7 0 0 0 -2.12-1 2.73 2.73 0 0 0 -2.71 2.76c-.08 3 4.73 5.92 4.73 5.92l.1-.09v.11a12.82 12.82 0 0 0 4.28-4.25 2.77 2.77 0 0 0 .56-1.69z" fill="#ed2024" transform="translate(-323.17 -327.83)"/><path d="m411.32 377.25s-3.26 13.39 11.3 12.3l.12-.32c1.92-13.53-11.42-12-11.42-12" fill="#f1e913" transform="translate(-323.17 -327.83)"/><path d="m324.7 388.64c-1.53-11.75 10.73-9.87 10.73-9.87s3 11.57-10.81 10.38z" fill="#f1e913" transform="translate(-323.17 -327.83)"/><path d="m358.64 404.06c2.55.18 7.12.63 8.45 1.6 0 0-.77 7.78-2.3 11.49s-.77 5.77-1.92 6-8.42-2.57-8.17-5 3.07-8.46 3.07-8.46-5.68-1.33-2.94-4.24a4.73 4.73 0 0 1 3.81-1.39z" fill="#d82627" stroke="#10242d" stroke-miterlimit="10" transform="translate(-323.17 -327.83)"/><path d="m381 405.49c-.52.48-1.82.32-1.7 1 .7 4.15 3.75 17.58 4.6 17.79 1 .25 8-2.94 8.17-4.85s-3.45-7.66-2.94-8.94 4-1 3.7-1.91-2.81-3.71-3.44-3.71-5.82-1.73-8.39.62z" fill="#d82627" stroke="#10242d" stroke-miterlimit="10" transform="translate(-323.17 -327.83)"/><path d="m335.43 378.77-10.81 10.38c13.78 1.19 10.81-10.38 10.81-10.38z" fill="#e79026" transform="translate(-323.17 -327.83)"/><path d="m422.56 389.56-11.25-12.26c-.19.87-2.73 13.26 11.25 12.26z" fill="#e79026" transform="translate(-323.17 -327.83)"/><ellipse cx="30.51" cy="55.66" fill="#10242d" rx="3.96" ry="6.17"/><ellipse cx="69.91" cy="56.09" fill="#10242d" rx="3.96" ry="6.17"/><path d="m368.52 393.49a5.58 5.58 0 0 0 10.41 0" fill="none" stroke="#10242d" stroke-linecap="round" stroke-linejoin="bevel" stroke-width="1.5" transform="translate(-323.17 -327.83)"/><ellipse cx="31.6" cy="54.26" fill="#d8d7ec" rx="1.21" ry="1.4"/><ellipse cx="71.94" cy="54.39" fill="#d8d7ec" rx="1.21" ry="1.28"/><path d="m394.62 393.38 2.68.76a2.24 2.24 0 0 0 .93 0 3.92 3.92 0 0 0 1.1-.35l.28-.15a.84.84 0 0 0 .31-.31c.05-.19-.06-.27-.24-.32l-2.68-.77a2.43 2.43 0 0 0 -.93 0 4.27 4.27 0 0 0 -1.1.35l-.27.15a.87.87 0 0 0 -.32.31c-.05.19.06.28.24.33z" fill="#d8d7ec" opacity=".52" transform="translate(-323.17 -327.83)"/><path d="m349.65 392.7-.18.21a3.2 3.2 0 0 1 .47-.43l-.26.19a3.87 3.87 0 0 1 .43-.27l-.32.17a2.17 2.17 0 0 1 .35-.15 1.92 1.92 0 0 0 .46-.27 1.11 1.11 0 0 0 .31-.3.36.36 0 0 0 .1-.32.28.28 0 0 0 -.1-.28l-.19-.14a1.52 1.52 0 0 0 -.59-.12h-.37a3 3 0 0 0 -.77.21 5.21 5.21 0 0 0 -.68.32 2.5 2.5 0 0 0 -.35.21 4.73 4.73 0 0 0 -.57.43 4.24 4.24 0 0 0 -.46.49.34.34 0 0 0 -.1.31.3.3 0 0 0 .1.29.59.59 0 0 0 .33.17 1 1 0 0 0 .45.08 2.76 2.76 0 0 0 1.14-.22l.32-.17a1.44 1.44 0 0 0 .45-.4z" fill="#d8d7ec" opacity=".52" transform="translate(-323.17 -327.83)"/><path d="m378.32 348.73a2.77 2.77 0 0 0 .56-1.67 2.74 2.74 0 0 0 -2.72-2.76 2.7 2.7 0 0 0 -2.12 1v7.55h.13a12.76 12.76 0 0 0 4.15-4.12z" fill="#d8d7ec" opacity=".26" transform="translate(-323.17 -327.83)"/><path d="m362.63 424.2c1.11-.25.37-2.21 1.85-5.76a.61.61 0 0 0 0-.12 6.55 6.55 0 0 0 -1.53.11l-.83 2-2.72-1.19.82-2.22-2.31-.93-.82 2-1.82-.51-.17-.1a10 10 0 0 0 -.45 1.86c-.2 2.41 6.86 5.1 7.98 4.86z" fill="#f1e913" stroke="#10242d" stroke-miterlimit="10" transform="translate(-323.17 -327.83)"/><path d="m383.94 424.3c1 .25 8-2.94 8.17-4.85a6 6 0 0 0 -.52-2.13h-2.12l-1-1.79-1.88.17.52 3.07-1.2.42s-.34.43-1.44-.68a1.4 1.4 0 0 0 -2.13.09v.06c.59 3.07 1.22 5.54 1.6 5.64z" fill="#f1e913" stroke="#10242d" stroke-miterlimit="10" transform="translate(-323.17 -327.83)"/></svg>