<svg xmlns="http://www.w3.org/2000/svg" viewBox="0 0 102.15 118.8"><defs><style>.cls-1,.cls-10{fill:#4cc9f5;}.cls-2,.cls-4,.cls-7{fill:#2293b2;}.cls-3,.cls-7{opacity:0.42;}.cls-4{opacity:0.58;}.cls-12,.cls-13,.cls-18,.cls-19,.cls-5,.cls-8{fill:none;}.cls-10,.cls-12,.cls-13,.cls-14,.cls-17,.cls-18,.cls-19,.cls-23,.cls-5,.cls-8{stroke:#10242d;}.cls-10,.cls-14,.cls-17,.cls-18,.cls-23,.cls-5,.cls-8{stroke-miterlimit:10;}.cls-10,.cls-5{stroke-width:1.2px;}.cls-6{fill:#10242d;}.cls-12,.cls-13,.cls-14,.cls-8{stroke-width:2px;}.cls-23,.cls-9{fill:#f1e913;}.cls-11{fill:#e79026;}.cls-12,.cls-19{stroke-linecap:round;}.cls-12,.cls-13{stroke-linejoin:round;}.cls-14,.cls-20,.cls-22{fill:#d8d7ec;}.cls-15{fill:#ed2024;}.cls-16{fill:#c75928;}.cls-17{fill:#d82627;}.cls-19{stroke-linejoin:bevel;stroke-width:1.5px;}.cls-21{opacity:0.52;}.cls-22{opacity:0.26;}</style></defs><g id="yellow_cap" data-name="yellow cap"><path class="cls-1" d="M353,408.55a42.39,42.39,0,0,0-4.07,4.84,2,2,0,0,1-1.06.84c-1.33.5-3.91,1.86-2.9,4.75,1.34,3.83,6.26.89,6.83.19a1.74,1.74,0,0,1,2.74.45c.39.87,3.55,3.05,5.48,4.06a2.11,2.11,0,0,1,1.14,2.08c-.23,2.52-.21,7.51,3.09,10.2,4.53,3.7,11.93,10.72,15.38,10s-1.72.32-1-6.26c.68-6.34,8.83-9,9.64-15a2.15,2.15,0,0,1,.7-1.27l3.5-3.29a2.1,2.1,0,0,1,2.15-.45c2.48.87,8,2.46,8.39-.71.45-4.08-2.17-4.85-3.83-4.78-1.45.05-5.85-4.94-6.91-6.18a2.5,2.5,0,0,0-.56-.46l-8.07-4.55a2,2,0,0,0-.89-.27l-22-1.55a2.11,2.11,0,0,0-2,3.14h0a2.12,2.12,0,0,1-1.58,3.13l-2.89.38A2.14,2.14,0,0,0,353,408.55Z" transform="translate(-323.17 -327.83)"/><path class="cls-2" d="M403,419c.45-4.08-2.17-4.85-3.83-4.78-1.06,0-3.68-2.6-5.43-4.52h-2.33s4.08,5.45,7,6,2.05,5.11,2.05,5.11l1.61-.29A1.81,1.81,0,0,0,403,419Z" transform="translate(-323.17 -327.83)"/><g class="cls-3"><path class="cls-2" d="M351.29,419.61c-1.82.38-3.75.5-4.63-.38-1.92-1.91,2.3-2,3.32-4.21a46.89,46.89,0,0,1,4.47-6.38L354,408a2.16,2.16,0,0,0-1,.59,42.39,42.39,0,0,0-4.07,4.84,2,2,0,0,1-1.06.84c-1.33.5-3.91,1.86-2.9,4.75C346.14,422.23,349.85,420.6,351.29,419.61Z" transform="translate(-323.17 -327.83)"/><path class="cls-2" d="M353.89,418.91a1.24,1.24,0,0,1,.35.25l1.23-.82S354.83,418.6,353.89,418.91Z" transform="translate(-323.17 -327.83)"/></g><path class="cls-4" d="M367.21,436c-7.66-3.45-5.36-13.28-5.36-13.28l-1,1.7a2.08,2.08,0,0,1,.37,1.38c-.23,2.52-.21,7.51,3.09,10.2,4.53,3.7,11.93,10.72,15.38,10A34.81,34.81,0,0,0,367.21,436Z" transform="translate(-323.17 -327.83)"/><path class="cls-5" d="M353,408.55a42.39,42.39,0,0,0-4.07,4.84,2,2,0,0,1-1.06.84c-1.33.5-3.91,1.86-2.9,4.75,1.34,3.83,6.26.89,6.83.19a1.74,1.74,0,0,1,2.74.45c.39.87,3.55,3.05,5.48,4.06a2.11,2.11,0,0,1,1.14,2.08c-.23,2.52-.21,7.51,3.09,10.2,4.53,3.7,11.93,10.72,15.38,10s-1.72.32-1-6.26c.68-6.34,8.83-9,9.64-15a2.15,2.15,0,0,1,.7-1.27l3.5-3.29a2.1,2.1,0,0,1,2.15-.45c2.48.87,8,2.46,8.39-.71.45-4.08-2.17-4.85-3.83-4.78-1.45.05-5.85-4.94-6.91-6.18a2.5,2.5,0,0,0-.56-.46l-8.07-4.55a2,2,0,0,0-.89-.27l-22-1.55a2.11,2.11,0,0,0-2,3.14h0a2.12,2.12,0,0,1-1.58,3.13l-2.89.38A2.14,2.14,0,0,0,353,408.55Z" transform="translate(-323.17 -327.83)"/><path class="cls-6" d="M335.55,369.19s1.41,4.85-2.81,6.13-9.57,5.11-9.57,15.7c0,0,12.26-.76,14-5.62,0,0,2.17-2.29,2.81,1.28s4.85,8.81,14.17,13S352,406,357,407.11c3.58.82,4.39-1.91,11.38-2.76a27.65,27.65,0,0,1,17.9,4.15l.21.14s1.53-5,5.87-6.38,13.66-9.83,16-14.05,3.57.13,5.49,1.28,7.4,1.66,10.47.51c0,0,5.42-10.66-8.49-15.57,0,0,.25-24.43-5.3-28.77S335.55,369.19,335.55,369.19Z" transform="translate(-323.17 -327.83)"/><path class="cls-1" d="M406.53,376.09c-17.74-17.11-65.87-3.58-65.87-3.58s-9.06,31.15,32.94,30.89c0,0,20.38.64,26.51-6.25,0,0,6.29-4.94,7.4-19.92Z" transform="translate(-323.17 -327.83)"/><path class="cls-7" d="M362.74,401c-20.29-5-21.06-26.43-21.06-26.43s-6.13,19.54,16.47,26.56" transform="translate(-323.17 -327.83)"/><path class="cls-2" d="M342.06,375.53s44.77-12.42,62.81,2a9.13,9.13,0,0,1,2.39,6c0,3.58,2.21-11.4,2.21-11.4L384.62,361.4S332.87,360.72,342.06,375.53Z" transform="translate(-323.17 -327.83)"/><path class="cls-8" d="M406.53,376.09c-17.74-17.11-65.87-3.58-65.87-3.58s-9.06,31.15,32.94,30.89c0,0,20.38.64,26.51-6.25,0,0,6.29-4.94,7.4-19.92Z" transform="translate(-323.17 -327.83)"/><path class="cls-9" d="M371.94,328.72a62.56,62.56,0,0,0-13.53,1.67c-33.92,8.37-23.24,45.06-23.24,45.06s44.17-16.34,76.34,2.29C411.51,377.74,428.62,327.45,371.94,328.72Z" transform="translate(-323.17 -327.83)"/><path class="cls-10" d="M363,406.51" transform="translate(-323.17 -327.83)"/><path class="cls-6" d="M358.64,404.06s18.32,4.66,26.66.75-26.66-.75-26.66-.75" transform="translate(-323.17 -327.83)"/><path class="cls-11" d="M412.57,373.79c1.81-8.09,4.08-26.68-9.66-37.29l-3.48-.63s15.74,13.62,11,40.85Z" transform="translate(-323.17 -327.83)"/><path class="cls-6" d="M407.26,376.64l-.35,7.4,2.56-6S408.79,376,407.26,376.64Z" transform="translate(-323.17 -327.83)"/></g><g id="Layer_5" data-name="Layer 5"><path class="cls-11" d="M409.14,350.7c-29.36-22.59-70-3.08-70-3.08l.95-1.77c3.83-9.44,19.69-15.81,19.69-15.81l-2.39.47c-32.29,9-21.9,44.71-21.9,44.71a2,2,0,0,1,1.22-1.56c.79-.64,1.68-.38.95-1-1.79-1.53-1-17.49-1-17.49,46.6-24.12,75.32-.25,74.81-1.53A11.24,11.24,0,0,0,409.14,350.7Z" transform="translate(-323.17 -327.83)"/><path class="cls-9" d="M410.81,385.91" transform="translate(-323.17 -327.83)"/><polygon class="cls-6" points="87.83 49.36 90.85 49.07 90.89 44.09 87.83 49.36"/><polygon class="cls-6" points="87.45 50.05 87.8 51.39 87.77 52.12 85.66 52.85 87.45 50.05"/></g><g id="base"><path class="cls-8" d="M405.56,375c1.77.79,3.52,1.67,5.23,2.64l.53-.43c1.73-5.74,13.21-49.59-39.77-48.4A62.1,62.1,0,0,0,358,330.52c-33.91,8.37-23.23,45.05-23.23,45.05a125.1,125.1,0,0,1,27-5.94C376,367.86,392.9,368,405.56,375Z" transform="translate(-323.17 -327.83)"/><path class="cls-12" d="M405.56,375c1.77.79,3.52,1.67,5.23,2.64l.53-.43c1.73-5.74,13.21-49.59-39.77-48.4A62.1,62.1,0,0,0,358,330.52c-33.91,8.37-23.23,45.05-23.23,45.05a125.1,125.1,0,0,1,27-5.94C376,367.86,392.9,368,405.56,375Z" transform="translate(-323.17 -327.83)"/><path class="cls-11" d="M333.83,365.43s39.7-23.62,77.36,1.66C411.19,367.09,377.23,331.85,333.83,365.43Z" transform="translate(-323.17 -327.83)"/><path class="cls-8" d="M333.66,365.53c35.27-20.92,68.19-5.12,79.94,2" transform="translate(-323.17 -327.83)"/><path class="cls-13" d="M334.74,351.7c36.12-17.58,70.49-6.59,78.73,3.49" transform="translate(-323.17 -327.83)"/><path class="cls-8" d="M334.49,375.62s46.13-17.53,76.34,1.7" transform="translate(-323.17 -327.83)"/></g><g id="cap_dets" data-name="cap dets"><ellipse class="cls-14" cx="50.64" cy="20.73" rx="8.94" ry="12.17"/></g><g id="heart"><path class="cls-15" d="M378.88,347.06a2.74,2.74,0,0,0-2.72-2.76,2.7,2.7,0,0,0-2.12,1,2.7,2.7,0,0,0-2.12-1,2.73,2.73,0,0,0-2.71,2.76c-.08,3,4.73,5.92,4.73,5.92l.1-.09V353a12.82,12.82,0,0,0,4.28-4.25A2.77,2.77,0,0,0,378.88,347.06Z" transform="translate(-323.17 -327.83)"/><path class="cls-16" d="M408.7,376.21" transform="translate(-323.17 -327.83)"/><path class="cls-9" d="M411.32,377.25s-3.26,13.39,11.3,12.3l.12-.32c1.92-13.53-11.42-12-11.42-12" transform="translate(-323.17 -327.83)"/><path class="cls-9" d="M324.7,388.64c-1.53-11.75,10.73-9.87,10.73-9.87s3,11.57-10.81,10.38Z" transform="translate(-323.17 -327.83)"/><path class="cls-17" d="M358.64,404.06c2.55.18,7.12.63,8.45,1.6,0,0-.77,7.78-2.3,11.49s-.77,5.77-1.92,6-8.42-2.57-8.17-5,3.07-8.46,3.07-8.46-5.68-1.33-2.94-4.24A4.73,4.73,0,0,1,358.64,404.06Z" transform="translate(-323.17 -327.83)"/><path class="cls-17" d="M381,405.49c-.52.48-1.82.32-1.7,1,.7,4.15,3.75,17.58,4.6,17.79,1,.25,8-2.94,8.17-4.85s-3.45-7.66-2.94-8.94,4-1,3.7-1.91-2.81-3.71-3.44-3.71S383.57,403.14,381,405.49Z" transform="translate(-323.17 -327.83)"/><path class="cls-11" d="M335.43,378.77l-10.81,10.38C338.4,390.34,335.43,378.77,335.43,378.77Z" transform="translate(-323.17 -327.83)"/><path class="cls-11" d="M422.56,389.56,411.31,377.3C411.12,378.17,408.58,390.56,422.56,389.56Z" transform="translate(-323.17 -327.83)"/><ellipse class="cls-6" cx="30.51" cy="55.66" rx="3.96" ry="6.17"/><ellipse class="cls-6" cx="69.91" cy="56.09" rx="3.96" ry="6.17"/><path class="cls-18" d="M367.77,393.06" transform="translate(-323.17 -327.83)"/><path class="cls-19" d="M368.52,393.49a5.58,5.58,0,0,0,10.41,0" transform="translate(-323.17 -327.83)"/><ellipse class="cls-20" cx="31.6" cy="54.26" rx="1.21" ry="1.4"/><ellipse class="cls-20" cx="71.94" cy="54.39" rx="1.21" ry="1.28"/><g class="cls-21"><path class="cls-20" d="M394.62,393.38l2.68.76a2.24,2.24,0,0,0,.93,0,3.92,3.92,0,0,0,1.1-.35l.28-.15a.84.84,0,0,0,.31-.31c.05-.19-.06-.27-.24-.32l-2.68-.77a2.43,2.43,0,0,0-.93,0,4.27,4.27,0,0,0-1.1.35l-.27.15a.87.87,0,0,0-.32.31c-.05.19.06.28.24.33Z" transform="translate(-323.17 -327.83)"/></g><g class="cls-21"><path class="cls-20" d="M349.65,392.7l0,0-.18.21a3.2,3.2,0,0,1,.47-.43l-.26.19a3.87,3.87,0,0,1,.43-.27l-.32.17a2.17,2.17,0,0,1,.35-.15,1.92,1.92,0,0,0,.46-.27,1.11,1.11,0,0,0,.31-.3.36.36,0,0,0,.1-.32.28.28,0,0,0-.1-.28l-.19-.14a1.52,1.52,0,0,0-.59-.12l-.37,0a3,3,0,0,0-.77.21,5.21,5.21,0,0,0-.68.32,2.5,2.5,0,0,0-.35.21,4.73,4.73,0,0,0-.57.43,4.24,4.24,0,0,0-.46.49.34.34,0,0,0-.1.31.3.3,0,0,0,.1.29.59.59,0,0,0,.33.17,1,1,0,0,0,.45.08,2.76,2.76,0,0,0,1.14-.22l.32-.17a1.44,1.44,0,0,0,.45-.4Z" transform="translate(-323.17 -327.83)"/></g><path class="cls-22" d="M378.32,348.73a2.77,2.77,0,0,0,.56-1.67,2.74,2.74,0,0,0-2.72-2.76,2.7,2.7,0,0,0-2.12,1v7.55h.13A12.76,12.76,0,0,0,378.32,348.73Z" transform="translate(-323.17 -327.83)"/></g><g id="yellow_tee" data-name="yellow tee"><path class="cls-23" d="M362.63,424.2c1.11-.25.37-2.21,1.85-5.76a.61.61,0,0,0,0-.12,6.55,6.55,0,0,0-1.53.11l-.83,2-2.72-1.19.82-2.22-2.31-.93-.82,2-1.82-.51-.17-.1a10,10,0,0,0-.45,1.86C354.45,421.75,361.51,424.44,362.63,424.2Z" transform="translate(-323.17 -327.83)"/><path class="cls-23" d="M383.94,424.3c1,.25,8-2.94,8.17-4.85a6,6,0,0,0-.52-2.13h-2.12l-1-1.79-1.88.17.52,3.07-1.2.42s-.34.43-1.44-.68a1.4,1.4,0,0,0-2.13.09l0,.06C382.93,421.73,383.56,424.2,383.94,424.3Z" transform="translate(-323.17 -327.83)"/></g></svg>